<?xml version="1.0" encoding="UTF-8"?>
<svg id="_레이어_1" data-name="레이어 1" xmlns="http://www.w3.org/2000/svg" xmlns:xlink="http://www.w3.org/1999/xlink" viewBox="0 0 1700.79 1417.32">
  <defs>
    <style>
      .cls-1 {
        fill: url(#_무제_그라디언트);
      }

      .cls-1, .cls-2, .cls-3 {
        stroke-width: 0px;
      }

      .cls-2 {
        fill: url(#_무제_그라디언트_2);
      }
    </style>
    <linearGradient id="_무제_그라디언트" data-name="무제 그라디언트" x1="742.51" y1="-7904.9" x2="1102.63" y2="-7904.9" gradientTransform="translate(0 8512.58)" gradientUnits="userSpaceOnUse">
      <stop offset="0" stop-color="#2bb7ff"/>
      <stop offset=".51" stop-color="#1752ff"/>
      <stop offset=".88" stop-color="#8b3bef"/>
    </linearGradient>
    <linearGradient id="_무제_그라디언트_2" data-name="무제 그라디언트 2" x1="598.16" y1="-7905.24" x2="825.5" y2="-7905.24" gradientTransform="translate(0 8512.58)" gradientUnits="userSpaceOnUse">
      <stop offset="0" stop-color="#77fbfd"/>
      <stop offset=".52" stop-color="#2bb7ff"/>
      <stop offset="1" stop-color="#343ee4"/>
    </linearGradient>
  </defs>
  <g id="finish">
    <path class="cls-1" d="M1094.76,424.62c-14.19-21.21-42.88-26.9-64.08-12.71-7.43,4.97-13.27,12-16.78,20.22l-91.58,214.36-62.41-146.95h76.46c22.2-.08,42.41-12.81,52.07-32.79,10.42-21.81,1.19-47.94-20.61-58.36-5.89-2.82-12.34-4.28-18.87-4.28h-162.73c-24.15,0-43.72,19.59-43.71,43.74,0,2.65.24,5.3.72,7.91.47,4.16,1.52,8.22,3.12,12.09l128.21,312.02c7.4,18.25,24.75,30.52,44.42,31.41h2.61c3.24-.03,6.48-.37,9.66-1.01,17.46-2.67,32.24-14.3,38.96-30.63h0l128.96-311.75c5.86-14.25,4.2-30.49-4.41-43.27ZM966.54,436.71c3.91,6.04,4.37,13.69,1.2,20.15-5.81,12.07-18.01,19.75-31.41,19.77h-85.97l-18.81-44.45c-.81-1.79-1.7-3.53-2.69-5.23h120.19c7.19-.05,13.88,3.66,17.64,9.79l-.15-.04ZM766.59,457.18c-.49-1.64-.81-3.33-.97-5.04-.58-7.92,2.86-15.6,9.16-20.43,4.08-3.11,9.11-4.72,14.24-4.57h0c9.36-.01,17.82,5.57,21.49,14.19l103.99,245.62,32.05,77.26c1.27,3.04,1.1,6.5-.46,9.4h0c-3.71,7.18-10.42,12.33-18.31,14.06-11.39,1.94-22.84-3.09-29.12-12.78l-5-10.59-126.27-305.19c-.4-.6-.52-1.3-.81-1.93ZM1077.96,459.19l-116.53,281.42-26.64-64.88,100.24-234.57c5.03-11.83,18.69-17.34,30.51-12.32,8.66,3.68,14.25,12.21,14.17,21.62-.02,2.94-.59,5.85-1.68,8.58l-.07.15Z"/>
    <path class="cls-2" d="M686.82,431.9c-7.26-17.06-24.01-28.13-42.54-28.12h0c-9.23-.09-18.27,2.64-25.91,7.83-18.06,12.36-25.03,35.66-16.72,55.91l128.22,312.02c7.41,18.25,24.77,30.51,44.45,31.37h2.57c18.75.07,35.99-10.28,44.75-26.87h0c4.68-8.95,5.14-19.51,1.28-28.84l-32.05-77.43-104.03-245.87ZM801.28,773.31c-7.24,13.59-24.12,18.73-37.71,11.49-5.71-3.04-10.18-7.98-12.65-13.96l-127.94-311.37c-3.05-7.11-2.49-15.25,1.49-21.88,4.22-6.9,11.78-11.05,19.87-10.91h0c9.33,0,17.76,5.6,21.39,14.2l104.4,245.67,32.05,77.34c1.23,3.06,1.04,6.5-.51,9.4l-.39.03Z"/>
  </g>
  <g>
    <path class="cls-3" d="M619.68,916.63h22.46l19.74,64.52,21.37-64.8h17.96l21.37,64.8,19.74-64.52h21.92l-32.54,95.96h-18.24l-21.51-62.34-21.51,62.34h-18.24l-32.52-95.96Z"/>
    <path class="cls-3" d="M777.31,916.63h20.96v95.28h-20.96v-95.28Z"/>
    <path class="cls-3" d="M840.88,935.95h-28.98v-19.33h78.92v19.33h-28.99v75.95h-20.96l.02-75.95Z"/>
    <path class="cls-3" d="M948.13,1013.54c-6.68.06-13.3-1.24-19.47-3.81-5.8-2.42-11.08-5.96-15.51-10.41-4.4-4.47-7.87-9.76-10.21-15.58-2.47-6.1-3.72-12.62-3.68-19.2v-.27c-.05-6.56,1.2-13.06,3.68-19.13,2.37-5.82,5.84-11.14,10.21-15.66,4.45-4.56,9.78-8.16,15.66-10.61,6.38-2.65,13.23-3.97,20.14-3.88,4.09-.03,8.17.33,12.19,1.09,3.43.65,6.78,1.66,10.01,3,2.93,1.23,5.71,2.79,8.3,4.63,2.51,1.8,4.87,3.8,7.06,5.99l-13.34,15.4c-3.41-3.14-7.24-5.8-11.37-7.9-4.05-1.95-8.5-2.93-13-2.86-7.57-.1-14.82,3.08-19.89,8.71-2.48,2.77-4.42,5.98-5.72,9.46-1.38,3.68-2.07,7.58-2.05,11.5v.26c-.02,3.94.67,7.85,2.05,11.55,1.28,3.5,3.19,6.73,5.65,9.53,5.04,5.71,12.32,8.94,19.94,8.85,5.45,0,10.06-1,13.82-2.99,4.08-2.23,7.85-4.97,11.23-8.17l13.34,13.47c-2.36,2.54-4.91,4.9-7.62,7.06-5.51,4.39-11.98,7.42-18.89,8.82-4.12.81-8.32,1.2-12.52,1.15Z"/>
    <path class="cls-3" d="M1000.53,916.63h20.96v37.7h38.66v-37.7h20.96v95.28h-20.96v-38.25h-38.66v38.25h-20.96v-95.28Z"/>
  </g>
</svg>