<?xml version="1.0" encoding="utf-8"?>
<!-- Generator: Adobe Illustrator 28.1.0, SVG Export Plug-In . SVG Version: 6.00 Build 0)  -->
<svg version="1.1" id="레이어_1" xmlns="http://www.w3.org/2000/svg" xmlns:xlink="http://www.w3.org/1999/xlink" x="0px"
	 y="0px" viewBox="0 0 1417.3 1417.3" style="enable-background:new 0 0 1417.3 1417.3;" xml:space="preserve">
<style type="text/css">
	.st0{fill:url(#SVGID_1_);}
	.st1{fill:url(#SVGID_00000090998172370211033790000011879562722889383332_);}
</style>
<g id="finish">
	
		<linearGradient id="SVGID_1_" gradientUnits="userSpaceOnUse" x1="502.8414" y1="-129.7919" x2="1189.5981" y2="-129.7919" gradientTransform="matrix(1 0 0 -1 0 579.1035)">
		<stop  offset="0" style="stop-color:#2BB7FF"/>
		<stop  offset="0.51" style="stop-color:#1752FF"/>
		<stop  offset="0.88" style="stop-color:#8B3BEF"/>
	</linearGradient>
	<path class="st0" d="M1174.6,360.2c-27.1-40.6-81.7-51.4-122.3-24.3c-14,9.3-25.2,22.9-31.7,38.3L846,782.7l-119-280.1h145.7
		c42.5,0,80.8-24.3,99.4-62.6c20.1-41.5,2.3-91.5-39.2-111.1c-11.2-5.1-23.3-7.9-35.9-7.9H586.4c-46.2,0-83.6,37.3-83.6,83.6
		c0,5.1,0.5,10.3,1.4,14.9c0.9,7.9,2.8,15.9,6.1,22.9l244.2,594.7c14,35,47.1,58.4,84.5,59.8h5.1c6.1,0,12.1-0.9,18.2-1.9
		c33.1-5.1,61.6-27.1,74.2-58.4l0,0L1183,442.8C1194.2,415.7,1190.9,384.5,1174.6,360.2z M930,383.5c7.5,11.7,8.4,26.1,2.3,38.3
		c-11.2,22.9-34.5,37.8-59.8,37.8H708.7l-35.9-85c-1.4-3.3-3.3-6.5-5.1-9.8h229.2C910.4,364.8,923,371.8,930,383.5L930,383.5z
		 M549.1,422.3c-0.9-3.3-1.4-6.5-1.9-9.8c-0.9-14.9,5.6-29.9,17.3-38.7c7.9-6.1,17.3-8.9,27.1-8.9l0,0c17.7,0,34.1,10.7,40.6,27.1
		l198.4,468.2l61.2,147.1c2.3,5.6,2.3,12.6-0.9,18.2l0,0c-7,13.5-20.1,23.3-35,26.6c-1.9,0.5-4.2,0.5-6.1,0.5
		c-20.1,2.8-39.7-7.5-49.5-25.2l-9.3-20.1L550.5,426C549.5,425.1,549.5,423.7,549.1,422.3z M1142.4,426L920.2,962.4l-50.9-123.7
		l190.9-447.2c7-16.3,22.9-27.1,40.6-27.1c24.7,0,44.3,20.1,44.3,44.8C1145.7,415.3,1144.7,420.9,1142.4,426L1142.4,426z"/>
	
		<linearGradient id="SVGID_00000107589930584804934200000008172675027030337450_" gradientUnits="userSpaceOnUse" x1="227.7247" y1="-129.3251" x2="660.9821" y2="-129.3251" gradientTransform="matrix(1 0 0 -1 0 579.1035)">
		<stop  offset="0" style="stop-color:#77FBFD"/>
		<stop  offset="0.52" style="stop-color:#2BB7FF"/>
		<stop  offset="1" style="stop-color:#343EE4"/>
	</linearGradient>
	<path style="fill:url(#SVGID_00000107589930584804934200000008172675027030337450_);" d="M396.9,374.2
		c-14-32.7-45.7-53.7-81.2-53.7l0,0c-17.7,0-35,5.1-49.5,14.9c-34.5,23.3-47.6,68.2-31.7,106.4l244.2,594.7c14,35,47.1,58.4,85,59.8
		h4.7c35.9,0,68.6-19.6,85.4-51.4l0,0c8.9-17.3,9.8-37.3,2.3-55.1l-61.2-147.5L396.9,374.2z M614.9,1024.9
		c-14,25.7-46.2,35.5-71.9,21.9c-10.7-5.6-19.6-15.4-24.3-26.6L275,426.5c-5.6-13.5-4.7-28.9,2.8-41.5c7.9-13.1,22.4-21,37.8-20.5
		l0,0c17.7,0,34.1,10.7,40.6,27.1l198.9,468.2l61.2,147.5c2.3,6.1,1.9,12.6-0.9,18.2L614.9,1024.9L614.9,1024.9z"/>
</g>
</svg>
